<?xml version="1.0" encoding="iso-8859-1"?>
<!-- Generator: Adobe Illustrator 19.0.0, SVG Export Plug-In . SVG Version: 6.00 Build 0)  -->
<svg version="1.1" id="Capa_1" xmlns="http://www.w3.org/2000/svg" xmlns:xlink="http://www.w3.org/1999/xlink" x="0px" y="0px"
	 viewBox="0 0 511.782 511.782" style="enable-background:new 0 0 511.782 511.782;" xml:space="preserve">
<g>
	<g>
		<g>
			<path d="M379.036,144.453c-37.641,6.326-75.725,9.652-113.893,9.947v91.611h127.881
				C392.434,211.722,387.738,177.626,379.036,144.453z"/>
			<path d="M267.393,0.462c-0.247-0.046-0.512-0.11-0.759-0.174c-0.411-0.073-0.832-0.101-1.198-0.174h-0.293v136.082
				c36.412-0.363,72.741-3.542,108.663-9.509C351.727,58.062,312.732,8.828,267.393,0.462z"/>
			<path d="M164.572,464.407c0.409-8.421,2.85-16.617,7.113-23.89c1.42-3.102,2.466-6.361,3.118-9.71
				c1.175-7.279,4.243-14.121,8.896-19.84c4.225-4.267,9.274-7.629,14.839-9.883c2.642-1.143,5.163-2.549,7.525-4.197
				c5.363-4.411,9.824-9.816,13.138-15.918c1.728-3.054,3.346-6.583,5.047-10.368c3.196-8.219,7.724-15.855,13.403-22.601
				c2.632-2.756,5.727-5.03,9.143-6.72v-24.238l-0.704-0.155c-19.922-5.029-39.918-10.048-59.922-14.885
				c-14.382-3.483-38.464-9.307-49.262-28.773c-3.436-6.843-5.751-14.193-6.857-21.769c-0.73-6.364-2.789-12.503-6.043-18.021
				c-7.244-7.026-16.494-11.624-26.469-13.157l-1.691-0.485c-12.453-3.822-29.522-10.651-35.721-26.514
				c-3.418-12.497-2.059-25.818,3.813-37.367c3.711-7.373,5.252-15.648,4.443-23.863c-0.734-3.82-3.2-7.083-6.674-8.832
				c-2.442-1.082-5.092-1.613-7.762-1.554c-4.355,0.056-8.651,1.015-12.617,2.816c-2.198,0.931-4.194,2.278-5.879,3.968
				c-4.736,5.183-8.441,11.222-10.917,17.792l-0.704,1.499C8.14,181.638,0.01,218.538,0.001,255.886
				c-0.333,116.796,78.671,218.911,191.808,247.918c-1.966-1.234-3.941-2.496-5.861-3.877
				C173.537,492.203,165.586,478.991,164.572,464.407z"/>
			<path d="M393.016,264.298H265.144v41.509c0.037,0.441,0.037,0.885,0,1.326v48.759v0.009c38.288,0.285,76.492,3.62,114.249,9.975
				C387.924,332.672,392.497,298.576,393.016,264.298z"/>
			<path d="M392.111,123.251c23.682-4.635,46.958-11.15,69.605-19.483C427.542,57.628,378.894,24.27,323.539,9.02
				C352.797,33.971,376.65,74.044,392.111,123.251z"/>
			<path d="M411.311,246.012l100.443-0.027c-1.693-45.047-15.33-88.834-39.515-126.875c-24.351,9.373-49.457,16.653-75.045,21.76
				C406.034,175.237,410.772,210.53,411.311,246.012z"/>
			<path d="M265.144,374.103v136.073v0.009c46.565-7.104,86.683-56.192,109.102-126.528
				C338.18,377.654,301.704,374.46,265.144,374.103z"/>
			<path d="M411.338,264.298c-0.546,35.46-5.331,70.728-14.254,105.051c25.888,5.161,51.279,12.561,75.886,22.117
				c23.894-38.239,37.281-82.103,38.811-127.168H411.338z"/>
			<path d="M320.321,503.621c40.101-10.371,77.073-30.35,107.721-58.213c12.804-11.645,24.393-24.56,34.587-38.546
				c-22.979-8.543-46.62-15.19-70.683-19.877C375.836,437.838,350.703,478.881,320.321,503.621z"/>
			<path d="M229.843,18.081c4.425,0.108,8.852-0.099,13.248-0.622c1.234-0.119,2.505-0.21,3.767-0.32V0.197
				c-15.716,0.558-31.346,2.566-46.693,5.998C208.485,13.308,218.914,17.484,229.843,18.081z"/>
			<path d="M230.675,219.196c-4.692,1.741-7.809,6.214-7.817,11.218c0,10.715,8.594,17.856,21.696,27.529l2.304,1.719V222.99
				c-0.96-0.402-1.865-0.759-2.853-1.198C237.852,219.077,234.47,217.715,230.675,219.196z"/>
			<path d="M235,390.058c-4.492,8.165-10.529,15.378-17.774,21.239c-3.377,2.469-7.013,4.562-10.843,6.245
				c-3.377,1.318-6.478,3.256-9.143,5.714c-2.468,3.54-4.065,7.612-4.663,11.886c-0.967,4.774-2.527,9.409-4.645,13.797
				c-2.829,4.685-4.563,9.948-5.074,15.397c1.382,8.58,6.397,16.147,13.76,20.763c3.73,2.67,7.854,5.083,12.224,7.625
				c8.993,4.725,17.193,10.827,24.302,18.085c4.462,0.402,9.033,0.689,13.714,0.859V366.295c-2.206,3.812-4.199,7.743-5.97,11.776
				C239.068,382.094,237.194,386.254,235,390.058z"/>
			<path d="M238.428,276.183c-1.518-1.152-3.145-2.35-4.773-3.557c-12.974-9.573-29.129-21.495-29.129-42.139
				c-0.023-12.586,7.746-23.871,19.511-28.343c7.419-2.735,15.626-2.372,22.775,1.006V35.507c-0.704,0.064-1.335,0.064-2.048,0.128
				c-4.059,0.384-8.21,0.768-12.507,0.768c-1.106,0-2.213-0.027-3.337-0.082c-19.082-0.943-36.876-9.91-48.987-24.686
				c-51.965,15.945-97.43,48.166-129.691,91.913c6.645-0.665,13.347,0.449,19.419,3.227c8.352,4.066,14.406,11.704,16.457,20.763
				c1.945,11.77,0.215,23.854-4.955,34.606c-4.049,7.493-5.426,16.141-3.904,24.521c3.273,8.402,15.168,12.901,23.835,15.543
				l1.499,0.43c13.934,2.381,26.666,9.367,36.16,19.84c4.963,7.655,8.138,16.33,9.289,25.381c0.797,5.701,2.449,11.249,4.901,16.457
				c6.391,11.511,22.053,16.137,37.595,19.886c18.834,4.553,37.595,9.28,56.32,13.998v-12.745
				C244.403,282.059,241.576,278.949,238.428,276.183z"/>
		</g>
	</g>
</g>
<g>
</g>
<g>
</g>
<g>
</g>
<g>
</g>
<g>
</g>
<g>
</g>
<g>
</g>
<g>
</g>
<g>
</g>
<g>
</g>
<g>
</g>
<g>
</g>
<g>
</g>
<g>
</g>
<g>
</g>
</svg>
