<?xml version="1.0" encoding="utf-8"?>
<!-- Generator: Adobe Illustrator 22.1.0, SVG Export Plug-In . SVG Version: 6.00 Build 0)  -->
<svg version="1.1" id="Capa_1" xmlns="http://www.w3.org/2000/svg" xmlns:xlink="http://www.w3.org/1999/xlink" x="0px" y="0px"
	 viewBox="0 0 57 57" style="enable-background:new 0 0 57 57;" xml:space="preserve">
<style type="text/css">
	.st0{fill:#333333;}
</style>
<g>
	<g>
		<path class="st0" d="M35.4,5.7l2.5-4.2C38.1,1,38,0.4,37.5,0.1C37-0.1,36.4,0,36.1,0.5l-2.6,4.4c-1.6-0.6-3.2-0.9-5-0.9
			s-3.4,0.3-5,0.9l-2.6-4.4C20.6,0,20-0.1,19.5,0.1S18.9,1,19.1,1.5l2.5,4.2c-4.8,2.5-8.1,7.5-8.1,13.3c0,0.6,0.4,1,1,1h28
			c0.6,0,1-0.4,1-1C43.5,13.2,40.2,8.2,35.4,5.7z M15.5,18c0.5-6.7,6.1-12,13-12s12.5,5.3,13,12H15.5z"/>
		<path class="st0" d="M35.5,11.4h-1.3c-0.4,0-0.7,0.3-0.7,0.7v1.3c0,0.4,0.3,0.7,0.7,0.7h1.3c0.4,0,0.7-0.3,0.7-0.7V12
			C36.1,11.7,35.8,11.4,35.5,11.4z"/>
		<path class="st0" d="M22.8,11.4h-1.3c-0.4,0-0.7,0.3-0.7,0.7v1.3c0,0.4,0.3,0.7,0.7,0.7h1.3c0.4,0,0.7-0.3,0.7-0.7V12
			C23.5,11.7,23.2,11.4,22.8,11.4z"/>
		<path class="st0" d="M42.5,21h-28c-0.6,0-1,0.4-1,1v20.2c0,2.7,2.2,4.8,4.8,4.8h1.2v6c0,2.2,1.8,4,4,4s4-1.8,4-4v-6h2v6
			c0,2.2,1.8,4,4,4s4-1.8,4-4v-6h1.2c2.7,0,4.8-2.2,4.8-4.8V22C43.5,21.4,43.1,21,42.5,21z M41.5,42.2c0,1.6-1.3,2.8-2.8,2.8h-2.2
			c-0.6,0-1,0.4-1,1v7c0,1.1-0.9,2-2,2s-2-0.9-2-2v-7c0-0.6-0.4-1-1-1h-4c-0.6,0-1,0.4-1,1v7c0,1.1-0.9,2-2,2s-2-0.9-2-2v-7
			c0-0.6-0.4-1-1-1h-2.2c-1.6,0-2.8-1.3-2.8-2.8V23h26V42.2z"/>
		<path class="st0" d="M48,21c-1.9,0-3.5,1.6-3.5,3.5v14c0,1.9,1.6,3.5,3.5,3.5s3.5-1.6,3.5-3.5v-14C51.5,22.6,49.9,21,48,21z
			 M49.5,38.5c0,0.8-0.7,1.5-1.5,1.5s-1.5-0.7-1.5-1.5v-14c0-0.8,0.7-1.5,1.5-1.5s1.5,0.7,1.5,1.5V38.5z"/>
		<path class="st0" d="M9,21c-1.9,0-3.5,1.6-3.5,3.5v14C5.5,40.4,7.1,42,9,42s3.5-1.6,3.5-3.5v-14C12.5,22.6,10.9,21,9,21z
			 M10.5,38.5c0,0.8-0.7,1.5-1.5,1.5s-1.5-0.7-1.5-1.5v-14C7.5,23.7,8.2,23,9,23s1.5,0.7,1.5,1.5V38.5z"/>
	</g>
</g>
</svg>
