<?xml version="1.0" encoding="utf-8"?>
<!-- Generator: Adobe Illustrator 22.1.0, SVG Export Plug-In . SVG Version: 6.00 Build 0)  -->
<svg version="1.1" id="Layer_1" xmlns="http://www.w3.org/2000/svg" xmlns:xlink="http://www.w3.org/1999/xlink" x="0px" y="0px"
	 viewBox="0 0 512 512" style="enable-background:new 0 0 512 512;" xml:space="preserve">
<style type="text/css">
	.st0{fill:#333333;}
</style>
<g>
	<g>
		<path class="st0" d="M464.3,212.1L99.6,8.1C84.2-1.9,64.8-2.7,48.6,6C32.2,14.7,22,31.7,22,50.3v411.3c0,18.6,10.2,35.6,26.6,44.4
			c16.1,8.6,35.6,7.9,51.1-2.1l364.6-204c16.1-9,25.7-25.4,25.7-43.9C490,237.5,480.4,221.1,464.3,212.1z M341.7,181.9l-50.3,50.3
			L113.1,54.1L341.7,181.9z M55.5,467.3V44.7L267.6,256L55.5,467.3z M113.1,457.9l178.2-178.2l50.3,50.3L113.1,457.9z M447.9,270.6
			L372.1,313l-57-57l57-57l75.8,42.4c7.7,4.3,8.6,11.7,8.6,14.6C456.5,259,455.6,266.3,447.9,270.6z"/>
	</g>
</g>
</svg>
