<?xml version="1.0" encoding="utf-8"?>
<!-- Generator: Adobe Illustrator 22.1.0, SVG Export Plug-In . SVG Version: 6.00 Build 0)  -->
<svg version="1.1" id="Capa_1" xmlns="http://www.w3.org/2000/svg" xmlns:xlink="http://www.w3.org/1999/xlink" x="0px" y="0px"
	 viewBox="0 0 512 512" style="enable-background:new 0 0 512 512;" xml:space="preserve">
<style type="text/css">
	.st0{fill:#333333;}
</style>
<g>
	<g>
		<path class="st0" d="M361,389.7c-5.3,0-9.5,4.3-9.5,9.5s4.3,9.5,9.5,9.5s9.5-4.3,9.5-9.5S366.3,389.7,361,389.7z"/>
	</g>
</g>
<g>
	<g>
		<g>
			<path class="st0" d="M384.5,358.8l-45.4-15.1l-16.3-32.6c14.7-14.9,24.9-34.7,28.3-55.3l2-12.2h17.4c15.8,0,28.6-12.8,28.6-28.6
				v-60.1c0-79-64.2-143.2-143.2-143.2c-79.2,0-143.2,64.1-143.2,143.2v60.1c0,12.4,8,23.1,19.1,27v11.2c0,15.8,12.8,28.6,28.6,28.6
				h8.4c4.1,9,9.5,17.3,16,24.8c1.4,1.6,2.8,3.1,4.2,4.5l-16.3,32.6l-45.4,15.1c-52.8,17.6-91.1,73.1-91.1,132.1
				c0,5.3,4.3,9.5,9.5,9.5H466c5.3,0,9.5-4.3,9.5-9.5C475.6,431.9,437.3,376.4,384.5,358.8z M380.1,214.9c0,5.3-4.3,9.5-9.5,9.5H356
				c2.4-18.8,4-38.8,4.7-58.5c0-0.6,0-1.1,0.1-1.6h19.4V214.9z M141.4,224.5c-5.3,0-9.5-4.3-9.5-9.5v-50.6h19.4c0,1,0.1,2,0.1,3
				c0,0,0,0.1,0,0.1c0,0,0,0,0,0c0.7,19.2,2.3,38.6,4.6,57L141.4,224.5L141.4,224.5z M160.5,262.7c-5.3,0-9.5-4.3-9.5-9.5v-9.5h7.8
				l2,12.2c0.4,2.3,0.9,4.6,1.4,6.9H160.5z M151,145.3h-18.7c4.8-64,58.2-114.6,123.7-114.6c65.2,0,118.9,50.6,123.7,114.6H361
				c-0.7-52.7-43.6-95.5-96.5-95.5h-17.1C194.6,49.8,151.7,92.5,151,145.3z M247.5,68.9h17.1c42.8,0,77.4,35,77.4,77.7
				c0,3,0,5.6-0.1,8c0,0,0,0.1,0,0.1l-11.9-1.7c-32.4-4.6-63.1-19.9-86.2-43.1c-1.8-1.8-4.2-2.8-6.8-2.8
				c-25.6,0-50.2,11.7-66.4,31.4C174.5,99.6,207.4,68.9,247.5,68.9z M182.1,262.7c-4.8-15.9-10.2-62.7-11.5-92.7l12.8-17.1
				c11.8-15.7,30.2-25.5,49.7-26.6c25.7,24.5,58.9,40.6,94.1,45.6l14.1,2c-0.9,19.9-2.9,39.9-5.6,58.3c0,0,0,0,0,0
				c-0.9,5.9-1.6,9.7-3.3,20.4c-5.1,30.3-27.7,57.7-57.6,65.2c-12.3,3.1-25.2,3.1-37.5,0c-18.7-4.7-35.8-17.6-46.8-36.1h19.5
				c3.9,11.1,14.6,19.1,27,19.1H256c15.8,0,28.6-12.8,28.6-28.6c0-15.8-12.8-28.6-28.6-28.6h-19.1c-12.7,0-23.2,8.2-27,19.1H182.1z
				 M236.1,337.2c6.5,1.4,13.2,2.1,19.9,2.1c5.2,0,10.4-0.4,15.6-1.3l-16.9,17.8L236.1,337.2z M241.6,369.7l-30.3,32
				c-8.3-16-15.5-32.6-21.4-49.6l11.4-22.7L241.6,369.7z M309,326.2l13,26c-5.9,17-13,33.6-21.4,49.6l-32.4-32.4L309,326.2z
				 M227.4,272.2c0-5.3,4.3-9.5,9.5-9.5H256c5.3,0,9.5,4.3,9.5,9.5c0,5.3-4.3,9.5-9.5,9.5h-19.1
				C231.6,281.8,227.4,277.5,227.4,272.2z M55.9,481.3c3.8-47.3,35.3-90.3,77.6-104.4l40.2-13.4c7.4,20.4,16.5,40.1,27.2,58.9
				c0,0,0,0.1,0.1,0.1c0,0,0,0,0,0c7.8,13.7,16.6,27.2,26.1,39.9l11.7,18.9H55.9z M256,472.8L243.1,452c-0.1-0.2-0.3-0.5-0.5-0.7
				c-7.7-10.3-14.9-21.1-21.5-32.1l34-36l35.9,35.9c-6.6,11.1-13.8,21.9-21.6,32.3C268.9,452,269.6,451,256,472.8z M273.2,481.3
				l11.7-18.9c9.6-12.8,18.4-26.3,26.3-40.2c0-0.1,0.1-0.2,0.1-0.3c0,0,0,0,0,0c10.6-18.6,19.6-38.2,26.9-58.4l40.2,13.4
				c42.4,14.1,73.8,57.1,77.6,104.4L273.2,481.3L273.2,481.3z"/>
		</g>
	</g>
</g>
<g>
	<g>
		<path class="st0" d="M427.4,442.7c-6.4-12.8-15.7-24.1-27-32.8c-4.2-3.2-10.2-2.4-13.4,1.7c-3.2,4.2-2.4,10.2,1.7,13.4
			c9,6.9,16.5,16,21.6,26.2c2.4,4.7,8.1,6.6,12.8,4.3C427.8,453.1,429.8,447.4,427.4,442.7z"/>
	</g>
</g>
</svg>
