<?xml version="1.0" encoding="utf-8"?>
<!-- Generator: Adobe Illustrator 22.1.0, SVG Export Plug-In . SVG Version: 6.00 Build 0)  -->
<svg version="1.1" id="Layer_1" xmlns="http://www.w3.org/2000/svg" xmlns:xlink="http://www.w3.org/1999/xlink" x="0px" y="0px"
	 viewBox="0 0 385 385" style="enable-background:new 0 0 385 385;" xml:space="preserve">
<style type="text/css">
	.st0{fill:#00C9FD;}
</style>
<path class="st0" d="M363,0H23.5c-3.7,0-7,2-8.8,5.2c-1.7,3.2-1.6,7.2,0.4,10.2l118.7,181.4v118.2c0,3.5,1.8,6.7,4.8,8.5l98.9,59.9
	c3.1,1.9,6.9,1.9,10.1,0.2c3.1-1.8,5.1-5.1,5.1-8.7V196.9L371.4,15.5c2-3.1,2.2-7,0.4-10.2S366.7,0,363,0z M234.3,188.4
	c-1.1,1.6-1.6,3.5-1.6,5.5v163.4l-78.9-47.8V193.9c0-1.9-0.6-3.8-1.6-5.5L41.9,20h302.6L234.3,188.4z"/>
</svg>
