<?xml version="1.0" encoding="utf-8"?>
<!-- Generator: Adobe Illustrator 22.1.0, SVG Export Plug-In . SVG Version: 6.00 Build 0)  -->
<svg version="1.1" id="Layer_1" xmlns="http://www.w3.org/2000/svg" xmlns:xlink="http://www.w3.org/1999/xlink" x="0px" y="0px"
	 viewBox="0 0 62 64" style="enable-background:new 0 0 62 64;" xml:space="preserve">
<style type="text/css">
	.st0{fill:#FFFFFF;}
	.st1{display:none;fill:#D75A4A;}
	.st2{display:none;}
	.st3{display:inline;}
</style>
<g id="Capa_1">
	<circle class="st0" cx="31" cy="31" r="31"/>
	<path class="st1" d="M31,27.7c0.5-1.2,1.7-2.1,3.1-2.1c1.9,0,3.2,1.6,3.4,3.5c0,0,0.1,0.5-0.1,1.3c-0.3,1.2-0.9,2.2-1.8,3L31,37.6
		l-4.5-4.1c-0.9-0.8-1.5-1.8-1.8-3c-0.3-0.9-0.2-1.4-0.2-1.4c0.2-1.9,1.5-3.5,3.4-3.5C29.3,25.6,30.4,26.5,31,27.7z"/>
</g>
<g id="Layer_2_1_" class="st2">
	<g class="st3">
		<path d="M28.4,34.1h7.2c0.8,0,1.5-0.7,1.5-1.5v-3l0,0l0,0l0,0l0,0l0,0l0,0l0,0l0,0l0,0l0,0l0,0l0,0l0,0l0,0l0,0l0,0l0,0l0,0l0,0
			l0,0l0,0l0,0l0,0l0,0l0,0l0,0l0,0l0,0l0,0l0,0l-9.5-1.7v-1.2l0,0l0,0l0,0l0,0l0,0l0,0l0,0l0,0l0,0l0,0l0,0l0,0l0,0l0,0l0,0l0,0
			l0,0l0,0l0,0l0,0l0,0l0,0l-2-0.8c-0.4-0.5-0.6-0.4-0.7-0.2c0,0.2,0.1,0.4,0.2,0.4l1.8,0.7v1.6v0.3v2v1.8v2.3
			c0,0.8,0.6,1.4,1.3,1.5c-0.1,0.2-0.2,0.5-0.2,0.8c0,0.8,0.7,1.5,1.5,1.5s1.5-0.7,1.5-1.5c0-0.3-0.1-0.5-0.2-0.7H34
			c-0.1,0.2-0.2,0.5-0.2,0.7c0,0.8,0.7,1.5,1.5,1.5s1.5-0.7,1.5-1.5c0-0.8-0.7-1.5-1.5-1.5h-6.9c-0.4,0-0.8-0.3-0.8-0.8v-1
			C27.8,34,28.1,34.1,28.4,34.1z M30.2,37.1c0,0.4-0.3,0.7-0.7,0.7s-0.7-0.3-0.7-0.7c0-0.4,0.3-0.7,0.7-0.7S30.2,36.7,30.2,37.1z
			 M36,37.1c0,0.4-0.3,0.7-0.7,0.7c-0.4,0-0.7-0.3-0.7-0.7c0-0.4,0.3-0.7,0.7-0.7C35.7,36.3,36,36.7,36,37.1z M35.6,33.3h-7.2
			c-0.4,0-0.8-0.3-0.8-0.8v-1.8v-2l0,0l8.7,1.2v2.7C36.4,33,36,33.3,35.6,33.3z"/>
	</g>
</g>
<g id="Layer_3" class="st2">
	<g class="st3">
		<path d="M36.3,27.9c-0.7-0.7-1.5-1-2.4-1c-0.9,0-1.8,0.4-2.4,1l-0.3,0.3l-0.3-0.3c-0.7-0.7-1.5-1-2.4-1s-1.8,0.4-2.4,1
			c-0.7,0.7-1,1.5-1,2.4s0.4,1.8,1,2.4l5,5c0.1,0.1,0.2,0.1,0.3,0.1c0.1,0,0.2,0,0.3-0.1l5-5c0,0,0,0,0,0c0.9-0.9,1-2.4,0.4-3.5
			C36.9,28.7,36.6,28.2,36.3,27.9z M35.8,32.3L31,37l-4.7-4.7c-0.5-0.5-0.8-1.2-0.8-1.9c0-0.7,0.3-1.4,0.8-1.9s1.2-0.8,1.9-0.8
			c0.7,0,1.4,0.3,1.9,0.8l0.7,0.5c0.1,0.1,0.4,0.1,0.5,0l0.6-0.6c0.5-0.5,1.2-0.8,1.9-0.8s1.4,0.3,1.9,0.8s0.8,1.2,0.8,1.9
			C36.6,31,36.3,31.7,35.8,32.3z"/>
	</g>
</g>
<g id="Layer_4" class="st2">
	<g class="st3">
		<path d="M34.7,33.8c-0.7,0-1.4,0.4-1.8,0.9l-3.5-2c0.1-0.2,0.1-0.5,0.1-0.8s0-0.5-0.1-0.8l3.5-2c0.4,0.5,1.1,0.9,1.8,0.9
			c1.3,0,2.3-1,2.3-2.3s-1-2.1-2.3-2.1s-2.3,1-2.3,2.3c0,0.3,0,0.5,0.1,0.8l-3.5,2c-0.3-0.7-1-1-1.7-1c-1.3,0-2.3,1-2.3,2.3
			s1,2.3,2.3,2.3c0.7,0,1.4-0.4,1.8-0.9l3.5,2c-0.1,0.2-0.1,0.5-0.1,0.8c0,1.3,1,2.3,2.3,2.3s2.3-1,2.3-2.3S36,33.8,34.7,33.8z
			 M34.7,26.3c0.9,0,1.6,0.7,1.6,1.6s-0.7,1.6-1.6,1.6c-0.9,0-1.6-0.7-1.6-1.6S33.9,26.3,34.7,26.3z M27.3,33.5
			c-0.9,0-1.6-0.7-1.6-1.6s0.7-1.6,1.6-1.6c0.9,0,1.6,0.7,1.6,1.6C28.8,32.8,28.1,33.5,27.3,33.5z M34.7,37.6
			c-0.9,0-1.6-0.7-1.6-1.6s0.7-1.6,1.6-1.6c0.9,0,1.6,0.7,1.6,1.6S35.6,37.6,34.7,37.6z"/>
	</g>
</g>
<path class="st1" d="M30.9,20.6c1.5-3.7,5.1-6.2,9.2-6.2c5.5,0,9.5,4.7,10,10.4c0,0,0.3,1.4-0.3,3.9c-0.8,3.4-2.7,6.5-5.3,8.8
	L30.9,49.6L17.5,37.5c-2.6-2.3-4.5-5.4-5.3-8.8c-0.6-2.5-0.3-3.9-0.3-3.9c0.5-5.6,4.5-10.4,10-10.4C26,14.4,29.3,16.9,30.9,20.6z"/>
<g class="st2">
	<path class="st3" d="M24.9,36.7h17c1.9,0,3.5-1.6,3.5-3.5v-7.2c0,0,0,0,0,0c0,0,0,0,0-0.1c0,0,0,0,0,0c0,0,0,0,0,0c0,0,0,0,0,0
		c0,0,0,0,0,0c0,0,0,0,0,0c0,0,0,0,0,0s0,0,0,0c0,0,0,0,0,0c0,0,0,0,0,0c0,0,0,0,0,0c0,0,0,0,0,0c0,0,0,0,0,0c0,0,0,0,0,0
		c0,0,0,0,0,0s0,0,0,0c0,0,0,0,0,0c0,0,0,0,0,0c0,0,0,0,0,0s0,0,0,0s0,0,0,0c0,0,0,0,0,0s0,0,0,0s0,0,0,0s0,0,0,0s0,0,0,0s0,0,0,0
		c0,0,0,0-0.1,0c0,0,0,0,0,0l-21.6-3v-3c0,0,0-0.1,0-0.1c0,0,0,0,0,0c0,0,0,0,0-0.1c0,0,0,0,0-0.1c0,0,0,0,0,0c0,0,0,0,0-0.1
		c0,0,0,0,0,0c0,0,0,0,0-0.1c0,0,0,0,0,0c0,0,0,0,0,0c0,0,0,0,0,0c0,0,0,0,0,0c0,0,0,0,0,0c0,0,0,0,0,0c0,0,0,0,0,0c0,0,0,0,0,0
		c0,0,0,0,0,0c0,0,0,0,0,0c0,0,0,0,0,0c0,0,0,0-0.1,0c0,0,0,0,0,0c0,0-0.1,0-0.1,0l-4.7-2c-0.4-0.2-0.9,0-1.1,0.5
		c-0.2,0.4,0,0.9,0.5,1.1l4.2,1.8v3.9v0.6V29v4.2v5.3c0,1.8,1.3,3.3,3.1,3.5c-0.3,0.5-0.5,1.1-0.5,1.8c0,1.9,1.6,3.5,3.5,3.5
		c1.9,0,3.5-1.6,3.5-3.5c0-0.6-0.2-1.2-0.5-1.7h7.7c-0.3,0.5-0.5,1.1-0.5,1.7c0,1.9,1.6,3.5,3.5,3.5s3.5-1.6,3.5-3.5
		c0-1.9-1.6-3.5-3.5-3.5H24.9c-1,0-1.8-0.8-1.8-1.8v-2.3C23.6,36.5,24.2,36.7,24.9,36.7z M29.1,43.8c0,1-0.8,1.7-1.7,1.7
		c-1,0-1.7-0.8-1.7-1.7s0.8-1.7,1.7-1.7C28.3,42.1,29.1,42.8,29.1,43.8z M42.8,43.8c0,1-0.8,1.7-1.7,1.7c-1,0-1.7-0.8-1.7-1.7
		s0.8-1.7,1.7-1.7C42,42.1,42.8,42.8,42.8,43.8z M41.9,35h-17c-1,0-1.8-0.8-1.8-1.8V29v-4.7v-0.3l20.6,2.8v6.4
		C43.7,34.2,42.9,35,41.9,35z"/>
</g>
<g class="st2">
	<path class="st3" d="M42.9,20.9c-1.5-1.5-3.4-2.3-5.5-2.3c-2.1,0-4.1,0.8-5.5,2.3L31,21.7l-0.8-0.8c-1.5-1.5-3.5-2.3-5.5-2.3
		c-2.1,0-4.1,0.8-5.5,2.3c-1.5,1.5-2.3,3.4-2.3,5.5c0,2.1,0.8,4.1,2.3,5.5l11.3,11.3c0.2,0.2,0.4,0.2,0.6,0.2s0.4-0.1,0.6-0.2
		L42.9,32c1.5-1.5,2.3-3.4,2.3-5.5C45.2,24.3,44.3,22.4,42.9,20.9z M41.7,30.8L31,41.5L20.3,30.8c-1.2-1.2-1.8-2.7-1.8-4.4
		s0.6-3.2,1.8-4.4c1.2-1.2,2.7-1.8,4.4-1.8c1.7,0,3.2,0.6,4.4,1.8l1.4,1.4c0.3,0.3,0.8,0.3,1.1,0l1.3-1.3c1.2-1.2,2.7-1.8,4.4-1.8
		c1.7,0,3.2,0.6,4.4,1.8c1.2,1.2,1.8,2.7,1.8,4.4C43.5,28.1,42.9,29.6,41.7,30.8z"/>
</g>
<g>
	<path d="M37.2,35.1c-1.6,0-3.1,0.8-4,2l-7.8-4.4c0.2-0.5,0.3-1.1,0.3-1.7c0-0.6-0.1-1.1-0.3-1.7l7.8-4.4c0.9,1.2,2.4,2,4,2
		c2.8,0,5.1-2.3,5.1-5.1s-2.3-5.1-5.1-5.1s-5.1,2.3-5.1,5.1c0,0.6,0.1,1.2,0.3,1.7l-7.8,4.4c-0.9-1.2-2.4-2-4-2
		c-2.8,0-5.1,2.3-5.1,5.1s2.3,5.1,5.1,5.1c1.6,0,3.1-0.8,4-2l7.8,4.4c-0.2,0.5-0.3,1.1-0.3,1.7c0,2.8,2.3,5.1,5.1,5.1
		s5.1-2.3,5.1-5.1S40,35.1,37.2,35.1z M37.2,18.4c1.9,0,3.5,1.6,3.5,3.5s-1.6,3.5-3.5,3.5c-1.9,0-3.5-1.6-3.5-3.5
		S35.3,18.4,37.2,18.4z M20.6,34.5c-1.9,0-3.5-1.6-3.5-3.5s1.6-3.5,3.5-3.5s3.5,1.6,3.5,3.5S22.5,34.5,20.6,34.5z M37.2,43.6
		c-1.9,0-3.5-1.6-3.5-3.5c0-1.9,1.6-3.5,3.5-3.5c1.9,0,3.5,1.6,3.5,3.5C40.7,42.1,39.1,43.6,37.2,43.6z"/>
</g>
</svg>
