<?xml version="1.0" encoding="utf-8"?>
<!-- Generator: Adobe Illustrator 22.1.0, SVG Export Plug-In . SVG Version: 6.00 Build 0)  -->
<svg version="1.1" id="Capa_1" xmlns="http://www.w3.org/2000/svg" xmlns:xlink="http://www.w3.org/1999/xlink" x="0px" y="0px"
	 viewBox="0 0 512 512" style="enable-background:new 0 0 512 512;" xml:space="preserve">
<style type="text/css">
	.st0{fill:#00C9FD;}
</style>
<g>
	<g>
		<g>
			<path class="st0" d="M469.3,0H42.7C19.1,0,0,19.1,0,42.7v426.7C0,492.9,19.1,512,42.7,512h426.7c23.6,0,42.6-19.1,42.7-42.7V42.7
				C512,19.1,492.9,0,469.3,0z M494.9,469.3c0,14.1-11.5,25.6-25.6,25.6H42.7c-14.1,0-25.6-11.5-25.6-25.6v-384h477.9L494.9,469.3
				L494.9,469.3z M494.9,68.3H17.1V42.7c0-14.1,11.5-25.6,25.6-25.6h426.7c14.1,0,25.6,11.5,25.6,25.6L494.9,68.3L494.9,68.3z"/>
			<path class="st0" d="M59.7,34.1h-8.5c-4.7,0-8.5,3.8-8.5,8.5s3.8,8.5,8.5,8.5h8.5c4.7,0,8.5-3.8,8.5-8.5S64.4,34.1,59.7,34.1z"/>
			<path class="st0" d="M97.1,34.8c-2.1-0.9-4.4-0.9-6.5,0c-1,0.4-2,1-2.8,1.8c-3.3,3.4-3.3,8.8,0,12.1c0.8,0.8,1.8,1.4,2.8,1.8
				c2.1,0.9,4.4,0.9,6.5,0c1-0.4,2-1,2.8-1.8c3.3-3.4,3.3-8.8,0-12.1C99.1,35.9,98.1,35.2,97.1,34.8z"/>
			<path class="st0" d="M131.3,34.7c-3.2-1.3-6.9-0.6-9.3,1.9c-0.8,0.8-1.4,1.8-1.8,2.8c-0.9,2.1-0.9,4.4,0,6.5c0.4,1,1,2,1.8,2.8
				c3.4,3.3,8.8,3.3,12.1,0c0.8-0.8,1.4-1.8,1.8-2.8c0.5-1,0.7-2.1,0.7-3.2C136.6,39.2,134.5,36.1,131.3,34.7z"/>
			<path class="st0" d="M460.8,34.1H170.7c-4.7,0-8.5,3.8-8.5,8.5s3.8,8.5,8.5,8.5h290.1c4.7,0,8.5-3.8,8.5-8.5
				S465.5,34.1,460.8,34.1z"/>
			<path class="st0" d="M131,406.4c0.4,0.4,0.8,0.7,1.3,0.9c32.1,34.1,76.9,53.5,123.8,53.5s91.7-19.4,123.8-53.6
				c0.4-0.2,0.8-0.5,1.2-0.9c0.3-0.4,0.5-0.8,0.7-1.2c59.9-65,59.9-165,0-230l0,0c-0.2-0.4-0.5-0.9-0.7-1.2c-0.4-0.4-0.8-0.7-1.3-1
				c-32.1-34.1-76.9-53.5-123.7-53.5s-91.6,19.3-123.7,53.5c-0.5,0.3-0.9,0.6-1.3,1c-0.3,0.4-0.5,0.8-0.7,1.2
				c-59.9,65-59.9,165,0,230C130.5,405.5,130.7,406,131,406.4z M302.5,436.5c13.1-15.8,23-34.1,29.1-53.8v0
				c10.7,5,20.8,11.2,30.1,18.6C344.9,417.3,324.7,429.3,302.5,436.5z M373.5,388.8c-11.4-9.1-23.8-16.8-37.1-22.7
				c5.5-22.1,8.5-44.7,8.9-67.4h63.8C407.4,331.8,394.9,363.4,373.5,388.8z M409.2,281.6h-63.8c-0.5-22.7-3.4-45.3-8.9-67.4
				c13.3-6,25.7-13.6,37.1-22.7C394.9,216.8,407.4,248.5,409.2,281.6z M361.8,179c-9.3,7.3-19.4,13.5-30.1,18.6
				c-6.1-19.7-15.9-37.9-29.1-53.8C324.7,150.9,344.9,162.9,361.8,179z M264.5,137.7c20.9,5.5,39.4,30.6,51.1,66.2
				c-16.5,5.7-33.7,9-51.1,9.7V137.7z M264.5,230.8c19-0.7,37.8-4.2,55.8-10.2c4.8,20,7.5,40.5,8,61.1h-63.8V230.8z M264.5,298.7
				h63.8c-0.5,20.6-3.2,41.1-8,61.1c-18-6.1-36.8-9.5-55.8-10.2V298.7z M264.5,366.6c17.4,0.8,34.6,4,51.1,9.7
				c-11.7,35.6-30.2,60.7-51.1,66.2V366.6z M150.2,401.2c9.3-7.3,19.4-13.5,30.1-18.5v0c6.1,19.7,15.9,37.9,29.1,53.8
				C187.3,429.3,167.1,417.3,150.2,401.2z M247.5,442.5c-20.9-5.5-39.4-30.6-51.1-66.2c16.5-5.7,33.7-9,51.1-9.7L247.5,442.5
				L247.5,442.5z M247.5,349.5c-19,0.7-37.8,4.2-55.8,10.2c-4.8-20-7.5-40.5-8-61.1h63.8V349.5z M247.5,281.6h-63.8
				c0.5-20.6,3.2-41.1,8-61.1c18,6.1,36.8,9.5,55.8,10.2V281.6z M247.5,137.7v76c-17.4-0.8-34.6-4-51.1-9.7
				C208.1,168.3,226.6,143.2,247.5,137.7z M209.5,143.8c-13.1,15.9-23,34.1-29.1,53.8v0c-10.7-5-20.8-11.2-30.1-18.6
				C167.1,162.9,187.3,150.9,209.5,143.8z M138.5,191.4c11.4,9.1,23.8,16.8,37.1,22.7c-5.5,22.1-8.5,44.7-8.9,67.4h-63.8
				C104.6,248.5,117.1,216.8,138.5,191.4z M166.6,298.7c0.4,22.7,3.4,45.3,8.9,67.4c-13.3,6-25.7,13.6-37.1,22.7
				c-21.3-25.4-33.9-57-35.6-90.1L166.6,298.7L166.6,298.7z"/>
		</g>
	</g>
</g>
</svg>
