<?xml version="1.0" encoding="utf-8"?>
<!-- Generator: Adobe Illustrator 22.1.0, SVG Export Plug-In . SVG Version: 6.00 Build 0)  -->
<svg version="1.1" id="Layer_1" xmlns="http://www.w3.org/2000/svg" xmlns:xlink="http://www.w3.org/1999/xlink" x="0px" y="0px"
	 viewBox="0 0 512 512" style="enable-background:new 0 0 512 512;" xml:space="preserve">
<style type="text/css">
	.st0{fill:#00C9FD;}
</style>
<path class="st0" d="M469.3,0H42.7C19.1,0,0,19.1,0,42.7v426.7C0,492.9,19.1,512,42.7,512h426.7c23.6,0,42.6-19.1,42.7-42.7V42.7
	C512,19.1,492.9,0,469.3,0z M42.7,17.1h426.7c14.1,0,25.6,11.5,25.6,25.6v25.6H17.1V42.7C17.1,28.5,28.5,17.1,42.7,17.1z
	 M469.3,494.9H42.7c-14.1,0-25.6-11.5-25.6-25.6v-384h477.9v384C494.9,483.5,483.5,494.9,469.3,494.9z"/>
<path class="st0" d="M51.2,51.2h8.5c4.7,0,8.5-3.8,8.5-8.5c0-4.7-3.8-8.5-8.5-8.5h-8.5c-4.7,0-8.5,3.8-8.5,8.5
	C42.7,47.4,46.5,51.2,51.2,51.2z"/>
<path class="st0" d="M93.9,51.2h8.5c4.7,0,8.5-3.8,8.5-8.5c0-4.7-3.8-8.5-8.5-8.5h-8.5c-4.7,0-8.5,3.8-8.5,8.5
	C85.3,47.4,89.2,51.2,93.9,51.2z"/>
<path class="st0" d="M136.5,51.2h8.5c4.7,0,8.5-3.8,8.5-8.5c0-4.7-3.8-8.5-8.5-8.5h-8.5c-4.7,0-8.5,3.8-8.5,8.5
	C128,47.4,131.8,51.2,136.5,51.2z"/>
<path class="st0" d="M213.3,102.4H68.3c-18.9,0-34.1,15.3-34.1,34.1V256c0,18.9,15.3,34.1,34.1,34.1h145.1
	c18.9,0,34.1-15.3,34.1-34.1V136.5C247.5,117.7,232.2,102.4,213.3,102.4z M230.4,256c0,9.4-7.6,17.1-17.1,17.1H68.3
	c-9.4,0-17.1-7.6-17.1-17.1V136.5c0-9.4,7.6-17.1,17.1-17.1h145.1c9.4,0,17.1,7.6,17.1,17.1V256z"/>
<path class="st0" d="M443.7,290.1H298.7c-18.9,0-34.1,15.3-34.1,34.1v119.5c0,18.9,15.3,34.1,34.1,34.1h145.1
	c18.9,0,34.1-15.3,34.1-34.1V324.3C477.9,305.4,462.6,290.1,443.7,290.1z M460.8,443.7c0,9.4-7.6,17.1-17.1,17.1H298.7
	c-9.4,0-17.1-7.6-17.1-17.1V324.3c0-9.4,7.6-17.1,17.1-17.1h145.1c9.4,0,17.1,7.6,17.1,17.1V443.7z"/>
<path class="st0" d="M221.9,324.3H59.7c-4.7,0-8.5,3.8-8.5,8.5c0,4.7,3.8,8.5,8.5,8.5h162.1c4.7,0,8.5-3.8,8.5-8.5
	C230.4,328.1,226.6,324.3,221.9,324.3z"/>
<path class="st0" d="M59.7,375.5h34.1c4.7,0,8.5-3.8,8.5-8.5c0-4.7-3.8-8.5-8.5-8.5H59.7c-4.7,0-8.5,3.8-8.5,8.5
	C51.2,371.6,55,375.5,59.7,375.5z"/>
<path class="st0" d="M221.9,358.4H128c-4.7,0-8.5,3.8-8.5,8.5c0,4.7,3.8,8.5,8.5,8.5h93.9c4.7,0,8.5-3.8,8.5-8.5
	C230.4,362.2,226.6,358.4,221.9,358.4z"/>
<path class="st0" d="M221.9,392.5h-34.1c-4.7,0-8.5,3.8-8.5,8.5c0,4.7,3.8,8.5,8.5,8.5h34.1c4.7,0,8.5-3.8,8.5-8.5
	C230.4,396.4,226.6,392.5,221.9,392.5z"/>
<path class="st0" d="M153.6,392.5H59.7c-4.7,0-8.5,3.8-8.5,8.5c0,4.7,3.8,8.5,8.5,8.5h93.9c4.7,0,8.5-3.8,8.5-8.5
	C162.1,396.4,158.3,392.5,153.6,392.5z"/>
<path class="st0" d="M153.6,426.7H59.7c-4.7,0-8.5,3.8-8.5,8.5c0,4.7,3.8,8.5,8.5,8.5h93.9c4.7,0,8.5-3.8,8.5-8.5
	C162.1,430.5,158.3,426.7,153.6,426.7z"/>
<path class="st0" d="M181.7,429.1c-1.6,1.6-2.4,3.8-2.5,6.1c0,0.6,0.1,1.1,0.2,1.7c0.1,0.5,0.3,1.1,0.5,1.5c0.2,0.5,0.4,1.1,0.8,1.5
	l1,1.3c0.8,0.8,1.8,1.4,2.8,1.8c1,0.4,2.1,0.7,3.2,0.7c2.3,0,4.4-0.9,6.1-2.5l1-1.3c0.3-0.5,0.6-1,0.8-1.5c0.2-0.5,0.4-1,0.5-1.5
	c0.1-0.6,0.1-1.1,0.2-1.7c0-3.5-2.1-6.6-5.3-7.9C187.8,425.9,184.1,426.7,181.7,429.1z"/>
<path class="st0" d="M290.1,153.6h162.1c4.7,0,8.5-3.8,8.5-8.5c0-4.7-3.8-8.5-8.5-8.5H290.1c-4.7,0-8.5,3.8-8.5,8.5
	C281.6,149.8,285.4,153.6,290.1,153.6z"/>
<path class="st0" d="M290.1,187.7h34.1c4.7,0,8.5-3.8,8.5-8.5c0-4.7-3.8-8.5-8.5-8.5h-34.1c-4.7,0-8.5,3.8-8.5,8.5
	C281.6,183.9,285.4,187.7,290.1,187.7z"/>
<path class="st0" d="M452.3,170.7h-93.9c-4.7,0-8.5,3.8-8.5,8.5c0,4.7,3.8,8.5,8.5,8.5h93.9c4.7,0,8.5-3.8,8.5-8.5
	C460.8,174.5,457,170.7,452.3,170.7z"/>
<path class="st0" d="M460.8,213.3c0-4.7-3.8-8.5-8.5-8.5h-34.1c-4.7,0-8.5,3.8-8.5,8.5c0,4.7,3.8,8.5,8.5,8.5h34.1
	C457,221.9,460.8,218,460.8,213.3z"/>
<path class="st0" d="M290.1,221.9H384c4.7,0,8.5-3.8,8.5-8.5c0-4.7-3.8-8.5-8.5-8.5h-93.9c-4.7,0-8.5,3.8-8.5,8.5
	C281.6,218,285.4,221.9,290.1,221.9z"/>
<path class="st0" d="M290.1,256H384c4.7,0,8.5-3.8,8.5-8.5c0-4.7-3.8-8.5-8.5-8.5h-93.9c-4.7,0-8.5,3.8-8.5,8.5
	C281.6,252.2,285.4,256,290.1,256z"/>
<path class="st0" d="M412.1,241.4c-1.6,1.6-2.4,3.8-2.5,6.1c0,0.6,0.1,1.1,0.2,1.7c0.1,0.5,0.3,1.1,0.5,1.5c0.2,0.5,0.4,1.1,0.8,1.5
	l1,1.3c0.8,0.8,1.8,1.4,2.8,1.8c1,0.4,2.1,0.7,3.2,0.7c2.3,0,4.4-0.9,6.1-2.5l1-1.3c0.3-0.5,0.6-1,0.8-1.5c0.2-0.5,0.4-1,0.5-1.5
	c0.1-0.6,0.2-1.1,0.2-1.7c0-3.5-2.1-6.6-5.3-7.9C418.2,238.2,414.5,238.9,412.1,241.4z"/>
<g>
	<g>
		<path class="st0" d="M217.2,163.8c0,0-0.1-0.1-0.1-0.1l-31.9-28.3c-0.3-0.3-0.6-0.5-1-0.6l-23.1-8.2c-1.6-0.6-3.3,0.2-3.9,1.8
			c-0.1,0.3-0.2,0.6-0.2,0.9c0,0.7-1,16-16.4,16.3c-15.5-0.2-16.4-15.6-16.5-16.3c-0.1-1.7-1.5-3-3.2-2.9c-0.3,0-0.6,0.1-0.8,0.2
			l-23,8.3c-0.4,0.1-0.7,0.3-1,0.6l-31.7,28.2c-1.2,1.2-1.3,3.1-0.1,4.3c0,0,0.1,0.1,0.1,0.1l25.2,25.5v69.7c0,1.7,1.4,3,3,3h96
			c1.7,0,3-1.4,3-3v-69.7l25.2-25.5C218.3,166.9,218.3,165,217.2,163.8z M191.8,184.9v-14.1c0-1.7-1.4-3-3-3c-1.7,0-3,1.4-3,3V260
			h-90v-89.2c0-1.7-1.4-3-3-3c-1.7,0-3,1.4-3,3v14.1L71,166l28.8-25.8l19-6.8c2.3,12.1,14.1,20,26.2,17.7
			c8.9-1.7,15.9-8.7,17.7-17.7l19,6.8l28.8,25.8L191.8,184.9z"/>
	</g>
</g>
<g>
	<g>
		<path class="st0" d="M447.6,351.5c0,0-0.1-0.1-0.1-0.1l-31.9-28.3c-0.3-0.3-0.6-0.5-1-0.6l-23.1-8.2c-1.6-0.6-3.3,0.2-3.9,1.8
			c-0.1,0.3-0.2,0.6-0.2,0.9c0,0.7-1,16-16.4,16.3c-15.5-0.2-16.4-15.6-16.5-16.3c-0.1-1.7-1.5-3-3.2-2.9c-0.3,0-0.6,0.1-0.8,0.2
			l-23,8.3c-0.4,0.1-0.7,0.3-1,0.6l-31.7,28.2c-1.2,1.2-1.3,3.1-0.1,4.3c0,0,0.1,0.1,0.1,0.1l25.2,25.5v69.7c0,1.7,1.4,3,3,3h96
			c1.7,0,3-1.4,3-3v-69.7l25.2-25.5C448.7,354.6,448.7,352.7,447.6,351.5z M422.2,372.6v-14.1c0-1.7-1.4-3-3-3c-1.7,0-3,1.4-3,3
			v89.2h-90v-89.2c0-1.7-1.4-3-3-3s-3,1.4-3,3v14.1l-18.6-18.9l28.8-25.8l19-6.8c2.3,12.1,14.1,20,26.2,17.7
			c8.9-1.7,15.9-8.7,17.7-17.7l19,6.8l28.8,25.8L422.2,372.6z"/>
	</g>
</g>
</svg>
