<?xml version="1.0" encoding="utf-8"?>
<!-- Generator: Adobe Illustrator 22.1.0, SVG Export Plug-In . SVG Version: 6.00 Build 0)  -->
<svg version="1.1" id="Layer_1" xmlns="http://www.w3.org/2000/svg" xmlns:xlink="http://www.w3.org/1999/xlink" x="0px" y="0px"
	 viewBox="0 0 512 512" style="enable-background:new 0 0 512 512;" xml:space="preserve">
<style type="text/css">
	.st0{fill:#00C9FD;}
</style>
<path class="st0" d="M296,286c5.5,0,10-4.5,10-10s-4.5-10-10-10s-10,4.5-10,10S290.5,286,296,286z"/>
<path class="st0" d="M76,286c5.5,0,10-4.5,10-10s-4.5-10-10-10s-10,4.5-10,10S70.5,286,76,286z"/>
<path class="st0" d="M10,126c5.5,0,10-4.5,10-10V20h96c5.5,0,10-4.5,10-10s-4.5-10-10-10H10C4.5,0,0,4.5,0,10v106
	C0,121.5,4.5,126,10,126z"/>
<path class="st0" d="M126,502c0-5.5-4.5-10-10-10H20v-96c0-5.5-4.5-10-10-10s-10,4.5-10,10v106c0,5.5,4.5,10,10,10h106
	C121.5,512,126,507.5,126,502z"/>
<path class="st0" d="M502,386c-5.5,0-10,4.5-10,10v96h-96c-5.5,0-10,4.5-10,10s4.5,10,10,10h106c5.5,0,10-4.5,10-10V396
	C512,390.5,507.5,386,502,386z"/>
<path class="st0" d="M502,0H396c-5.5,0-10,4.5-10,10s4.5,10,10,10h96v96c0,5.5,4.5,10,10,10s10-4.5,10-10V10C512,4.5,507.5,0,502,0z
	"/>
<path class="st0" d="M66,436c0,5.5,4.5,10,10,10h100c5.5,0,10-4.5,10-10V336c0-5.5-4.5-10-10-10H76c-5.5,0-10,4.5-10,10V436z
	 M86,346h80v80H86V346z"/>
<path class="st0" d="M176,66H76c-5.5,0-10,4.5-10,10v100c0,5.5,4.5,10,10,10h100c5.5,0,10-4.5,10-10V76C186,70.5,181.5,66,176,66z
	 M166,166H86V86h80V166z"/>
<path class="st0" d="M446,76c0-5.5-4.5-10-10-10H336c-5.5,0-10,4.5-10,10v100c0,5.5,4.5,10,10,10h100c5.5,0,10-4.5,10-10V76z
	 M426,166h-80V86h80V166z"/>
<path class="st0" d="M446,436V336c0-5.5-4.5-10-10-10H336c-5.5,0-10,4.5-10,10v100c0,5.5,4.5,10,10,10h100
	C441.5,446,446,441.5,446,436z M426,426h-80v-80h80V426z"/>
<path class="st0" d="M136,366h-20c-5.5,0-10,4.5-10,10v20c0,5.5,4.5,10,10,10h20c5.5,0,10-4.5,10-10v-20
	C146,370.5,141.5,366,136,366z"/>
<path class="st0" d="M116,146h20c5.5,0,10-4.5,10-10v-20c0-5.5-4.5-10-10-10h-20c-5.5,0-10,4.5-10,10v20
	C106,141.5,110.5,146,116,146z"/>
<path class="st0" d="M376,146h20c5.5,0,10-4.5,10-10v-20c0-5.5-4.5-10-10-10h-20c-5.5,0-10,4.5-10,10v20
	C366,141.5,370.5,146,376,146z"/>
<path class="st0" d="M376,406h20c5.5,0,10-4.5,10-10v-20c0-5.5-4.5-10-10-10h-20c-5.5,0-10,4.5-10,10v20
	C366,401.5,370.5,406,376,406z"/>
<path class="st0" d="M106,276c0,5.5,4.5,10,10,10h130v50c0,5.5,4.5,10,10,10s10-4.5,10-10v-60c0-5.5-4.5-10-10-10H116
	C110.5,266,106,270.5,106,276z"/>
<path class="st0" d="M176,246c5.5,0,10-4.5,10-10s-4.5-10-10-10H76c-5.5,0-10,4.5-10,10s4.5,10,10,10H176z"/>
<path class="st0" d="M216,246h40c5.5,0,10-4.5,10-10s-4.5-10-10-10h-40c-5.5,0-10,4.5-10,10S210.5,246,216,246z"/>
<path class="st0" d="M216,66c-5.5,0-10,4.5-10,10v100c0,5.5,4.5,10,10,10h70v50c0,5.5,4.5,10,10,10h40c5.5,0,10-4.5,10-10
	s-4.5-10-10-10h-30v-50c0-5.5-4.5-10-10-10h-70V76C226,70.5,221.5,66,216,66z"/>
<path class="st0" d="M436,226h-60c-5.5,0-10,4.5-10,10s4.5,10,10,10h60c5.5,0,10-4.5,10-10S441.5,226,436,226z"/>
<path class="st0" d="M436,266H336c-5.5,0-10,4.5-10,10s4.5,10,10,10h100c5.5,0,10-4.5,10-10S441.5,266,436,266z"/>
<path class="st0" d="M256,366h-40c-5.5,0-10,4.5-10,10v60c0,5.5,4.5,10,10,10s10-4.5,10-10v-50h30c5.5,0,10-4.5,10-10
	S261.5,366,256,366z"/>
<path class="st0" d="M286,426h-30c-5.5,0-10,4.5-10,10s4.5,10,10,10h40c5.5,0,10-4.5,10-10V316c0-5.5-4.5-10-10-10s-10,4.5-10,10
	V426z"/>
<path class="st0" d="M296,146c5.5,0,10-4.5,10-10V76c0-5.5-4.5-10-10-10s-10,4.5-10,10v50h-30c-5.5,0-10,4.5-10,10s4.5,10,10,10H296
	z"/>
</svg>
