<?xml version="1.0" encoding="utf-8"?>
<!-- Generator: Adobe Illustrator 22.1.0, SVG Export Plug-In . SVG Version: 6.00 Build 0)  -->
<svg version="1.1" id="Capa_1" xmlns="http://www.w3.org/2000/svg" xmlns:xlink="http://www.w3.org/1999/xlink" x="0px" y="0px"
	 viewBox="0 0 512 512" style="enable-background:new 0 0 512 512;" xml:space="preserve">
<style type="text/css">
	.st0{fill:#00C9FD;}
</style>
<g>
	<g>
		<g>
			<path class="st0" d="M59.7,34.1h-8.5c-4.7,0-8.5,3.8-8.5,8.5s3.8,8.5,8.5,8.5h8.5c4.7,0,8.5-3.8,8.5-8.5S64.4,34.1,59.7,34.1z"/>
			<path class="st0" d="M102.4,34.1h-8.5c-4.7,0-8.5,3.8-8.5,8.5s3.8,8.5,8.5,8.5h8.5c4.7,0,8.5-3.8,8.5-8.5S107.1,34.1,102.4,34.1z
				"/>
			<path class="st0" d="M145.1,34.1h-8.5c-4.7,0-8.5,3.8-8.5,8.5s3.8,8.5,8.5,8.5h8.5c4.7,0,8.5-3.8,8.5-8.5S149.8,34.1,145.1,34.1z
				"/>
			<path class="st0" d="M409.6,34.1H179.2c-4.7,0-8.5,3.8-8.5,8.5s3.8,8.5,8.5,8.5h230.4c4.7,0,8.5-3.8,8.5-8.5
				S414.3,34.1,409.6,34.1z"/>
			<path class="st0" d="M494.9,307.2h-8.5v-42.7c0-23.9-9.2-46.9-25.6-64.2V42.7c0-23.6-19.1-42.6-42.7-42.7H42.7
				C19.1,0,0,19.1,0,42.7V384c0,23.6,19.1,42.6,42.7,42.7h230.4v25.6c0,33,26.8,59.7,59.7,59.7h119.5c33,0,59.7-26.8,59.7-59.7v-128
				C512,314.8,504.4,307.2,494.9,307.2z M469.3,264.5v42.7H315.7v-42.7c0-42.4,34.4-76.8,76.8-76.8S469.3,222.1,469.3,264.5z
				 M17.1,42.7c0-14.1,11.5-25.6,25.6-25.6h375.5c14.1,0,25.6,11.5,25.6,25.6v25.6H17.1V42.7z M273.1,324.3v85.3H42.7
				c-14.1,0-25.6-11.5-25.6-25.6V85.3h426.7V186c-28.8-18.9-65.7-20.4-96-4s-49.1,48.1-49.1,82.6v42.7h-8.5
				C280.7,307.2,273.1,314.8,273.1,324.3z M494.9,341.3h-25.6c-4.7,0-8.5,3.8-8.5,8.5s3.8,8.5,8.5,8.5h25.6v17.1h-25.6
				c-4.7,0-8.5,3.8-8.5,8.5s3.8,8.5,8.5,8.5h25.6v17.1h-25.6c-4.7,0-8.5,3.8-8.5,8.5s3.8,8.5,8.5,8.5h25.6v17.1h-25.6
				c-4.7,0-8.5,3.8-8.5,8.5c0,4.7,3.8,8.5,8.5,8.5h24.7c-4.1,19.9-21.5,34.1-41.8,34.1H332.8c-20.3,0-37.7-14.3-41.8-34.1h24.7
				c4.7,0,8.5-3.8,8.5-8.5c0-4.7-3.8-8.5-8.5-8.5h-25.6v-17.1h25.6c4.7,0,8.5-3.8,8.5-8.5s-3.8-8.5-8.5-8.5h-25.6v-17.1h25.6
				c4.7,0,8.5-3.8,8.5-8.5s-3.8-8.5-8.5-8.5h-25.6v-17.1h25.6c4.7,0,8.5-3.8,8.5-8.5s-3.8-8.5-8.5-8.5h-25.6v-17.1h204.8
				L494.9,341.3L494.9,341.3z"/>
			<path class="st0" d="M384,416.6v18.6c0,4.7,3.8,8.5,8.5,8.5c4.7,0,8.5-3.8,8.5-8.5v-18.6c11.7-4.1,18.8-16.1,16.7-28.4
				s-12.8-21.2-25.2-21.2c-12.5,0-23.1,8.9-25.2,21.2C365.2,400.4,372.3,412.4,384,416.6z M392.5,384c4.7,0,8.5,3.8,8.5,8.5
				c0,4.7-3.8,8.5-8.5,8.5c-4.7,0-8.5-3.8-8.5-8.5S387.8,384,392.5,384z"/>
			<path class="st0" d="M145.1,170.7c-4.7,0-8.5,3.8-8.5,8.5v25.6H68.3v-68.3h34.1c4.7,0,8.5-3.8,8.5-8.5s-3.8-8.5-8.5-8.5H68.3
				c-9.4,0-17.1,7.6-17.1,17.1v68.3c0,9.4,7.6,17.1,17.1,17.1h68.3c9.4,0,17.1-7.6,17.1-17.1v-25.6
				C153.6,174.5,149.8,170.7,145.1,170.7z"/>
			<path class="st0" d="M91.4,156.1c-3.3-3.2-8.7-3.2-12,0.1c-3.3,3.3-3.3,8.6-0.1,12l17.1,17.1c1.6,1.6,3.8,2.5,6,2.5h0.4
				c2.4-0.1,4.6-1.2,6.2-3.1l42.7-51.2c2-2.3,2.5-5.5,1.5-8.4c-1.1-2.9-3.5-4.9-6.6-5.5s-6.1,0.6-8,2.9l-36.7,44L91.4,156.1z"/>
			<path class="st0" d="M145.1,315.7c-4.7,0-8.5,3.8-8.5,8.5v25.6H68.3v-68.3h34.1c4.7,0,8.5-3.8,8.5-8.5c0-4.7-3.8-8.5-8.5-8.5
				H68.3c-9.4,0-17.1,7.6-17.1,17.1v68.3c0,9.4,7.6,17.1,17.1,17.1h68.3c9.4,0,17.1-7.6,17.1-17.1v-25.6
				C153.6,319.6,149.8,315.7,145.1,315.7z"/>
			<path class="st0" d="M91.4,301.2c-3.3-3.2-8.7-3.2-12,0.1c-3.3,3.3-3.3,8.6-0.1,12l17.1,17.1c1.6,1.6,3.8,2.5,6,2.5h0.4
				c2.4-0.1,4.6-1.2,6.2-3.1l42.7-51.2c2-2.3,2.5-5.5,1.5-8.4s-3.5-4.9-6.6-5.5s-6.1,0.6-8,2.9l-36.7,44L91.4,301.2z"/>
			<path class="st0" d="M187.7,145.1H256c4.7,0,8.5-3.8,8.5-8.5s-3.8-8.5-8.5-8.5h-68.3c-4.7,0-8.5,3.8-8.5,8.5
				S183,145.1,187.7,145.1z"/>
			<path class="st0" d="M307.2,179.2c0-4.7-3.8-8.5-8.5-8.5H187.7c-4.7,0-8.5,3.8-8.5,8.5s3.8,8.5,8.5,8.5h110.9
				C303.4,187.7,307.2,183.9,307.2,179.2z"/>
			<path class="st0" d="M256,273.1h-68.3c-4.7,0-8.5,3.8-8.5,8.5s3.8,8.5,8.5,8.5H256c4.7,0,8.5-3.8,8.5-8.5S260.7,273.1,256,273.1z
				"/>
			<path class="st0" d="M247.5,315.7h-59.7c-4.7,0-8.5,3.8-8.5,8.5s3.8,8.5,8.5,8.5h59.7c4.7,0,8.5-3.8,8.5-8.5
				S252.2,315.7,247.5,315.7z"/>
		</g>
	</g>
</g>
</svg>
