<?xml version="1.0" encoding="utf-8"?>
<!-- Generator: Adobe Illustrator 22.1.0, SVG Export Plug-In . SVG Version: 6.00 Build 0)  -->
<svg version="1.1" id="Capa_1" xmlns="http://www.w3.org/2000/svg" xmlns:xlink="http://www.w3.org/1999/xlink" x="0px" y="0px"
	 viewBox="0 0 456.8 456.8" style="enable-background:new 0 0 456.8 456.8;" xml:space="preserve">
<style type="text/css">
	.st0{fill:#333333;}
</style>
<g>
	<g>
		<path class="st0" d="M451.4,247.5c-3.6-3.6-7.9-5.4-12.8-5.4h-64v-83.9l49.4-49.4c3.6-3.6,5.4-7.9,5.4-12.8
			c0-4.9-1.8-9.2-5.4-12.8c-3.6-3.6-7.9-5.4-12.8-5.4s-9.2,1.8-12.8,5.4l-49.4,49.4h-241L58.5,83.1c-3.6-3.6-7.9-5.4-12.8-5.4
			c-5,0-9.2,1.8-12.8,5.4c-3.6,3.6-5.4,7.9-5.4,12.8c0,5,1.8,9.2,5.4,12.8l49.4,49.4v83.9h-64c-4.9,0-9.2,1.8-12.8,5.4
			c-3.6,3.6-5.4,7.9-5.4,12.8c0,4.9,1.8,9.2,5.4,12.8c3.6,3.6,7.9,5.4,12.8,5.4h64c0,30.4,5.5,56.5,16.6,78.2l-57.7,64.8
			c-3.2,3.8-4.7,8.2-4.4,13.3c0.3,5,2.2,9.3,5.9,12.7c3.6,3,7.7,4.6,12.3,4.6c5.3,0,9.9-2,13.7-6l52.2-59.1l4.3,4
			c2.7,2.5,6.8,5.6,12.4,9.3c5.6,3.7,11.9,7.4,18.8,11.1c6.9,3.7,15.2,6.9,24.8,9.4c9.6,2.6,19.3,3.9,29,3.9V169h36.5v255.8
			c9.1,0,18.4-1.2,27.7-3.7c9.3-2.5,17.1-5.2,23.4-8.3c6.3-3,12.5-6.5,18.6-10.4c6.1-3.9,10.1-6.6,12-8.1c1.9-1.5,3.3-2.8,4.3-3.7
			l56.5,56.2c3.4,3.6,7.7,5.4,12.8,5.4c5.1,0,9.4-1.8,12.9-5.4c3.6-3.6,5.4-7.9,5.4-12.9s-1.8-9.2-5.4-12.8l-59.4-59.7
			c12.8-22.7,19.1-50.3,19.1-82.8h64c4.9,0,9.2-1.8,12.8-5.4c3.6-3.6,5.4-7.9,5.4-12.8C456.8,255.4,455,251.2,451.4,247.5z"/>
		<path class="st0" d="M293.1,31.3c-17.8-17.8-39.4-26.7-64.7-26.7c-25.3,0-46.9,8.9-64.7,26.7c-17.8,17.8-26.7,39.4-26.7,64.7
			h182.7C319.8,70.6,310.9,49.1,293.1,31.3z"/>
	</g>
</g>
</svg>
